<?xml version="1.0" encoding="utf-8"?>
<!-- Generator: Adobe Illustrator 24.0.1, SVG Export Plug-In . SVG Version: 6.00 Build 0)  -->
<svg version="1.1" id="Layer_1" xmlns="http://www.w3.org/2000/svg" xmlns:xlink="http://www.w3.org/1999/xlink" x="0px" y="0px"
	 viewBox="0 0 1000 800" style="enable-background:new 0 0 1000 800;" xml:space="preserve">
<g>
	<path d="M314.5,678.1c-13.4-49.3-33.6-93.9-67.7-131.3c-27.2-29.9-60.4-50-102.5-59.8c3.9,9.5,7.3,17.4,10.6,25.4
		c-0.6,0.2-1.2,0.4-1.8,0.6c2,1.7,4,3.4,6.2,5.1c-1.1,1.2-2,2.2-2.8,3.2c2.4,3.2,8.8,3.8,5.8,9.3c0.9,4.4,8.7,5.3,5.9,12
		c2.9,5.2,6.1,10.9,9.6,17.1c-1.7,0-3.5,0-5.3,0c-0.5,0.8-1,1.5-1.5,2.3c5.8,4.7,11.7,9.3,18.3,14.7c-17.4,4.4-34-6-39.3-23.3
		c-1.5,2.1-2.8,3.9-4.6,6.4c-11.7-13.2-17-29-23.1-45c0.4,4.2,0.8,8.3,1.2,13c-2-0.2-3.7-0.4-5.8-0.6c1.5,3.9,2.8,7.3,4.5,11.7
		c-2.6-0.2-4.4-0.4-6.3-0.6c1.8,5.1,3.4,9.7,5.4,15.3c-3.1-0.9-4.8-1.3-6.5-1.8c1.6,6,3.1,11.8,4.8,18c-2.8-0.3-4.2-0.5-6.1-0.7
		c1.4,4.6,2.7,8.7,4.1,13.5c-2.2,0-3.6,0-5.5,0c1.2,5.2,2.2,10,3.6,16.2c-3.5-2.9-5.7-4.7-8.2-6.8c1.8,11,3.5,21.2,5.2,31.5
		c-1.2,0.6-2.4,1.1-3.6,1.7c-6.8-8.2-13.5-16.5-20.3-24.7c-7.8-9.6-4.8-19.8-0.1-31.9c-4.4,2.8-7,4.4-10.6,6.6
		c-1.4-11.1-6.7-21.6,0.9-29.9c-0.8-4.3-2.3-7.3-1.6-9.7c2.2-8.3,5.1-16.5,7.9-25.3c-8.6,9.9-8.6,9.9-11.3,8.3
		c-5.8,3.9-11.1,7.5-16.7,11.4c-0.3-1.4-0.7-3-1.2-5.2c-5.1,6.3-9.8,12.2-14.6,18.2c-3.9-15.9-0.7-30.2,8.9-41.5
		c9-10.6,20.9-18.9,31.6-28.2c-7.4-2.8-16.2-6.1-24.9-9.4c4.8-10.5,25.6-14.2,44.2-6.4c-1.7-11.4-3.7-22.1-4.7-32.9
		c-1.1-11.2-0.3-22.3,7.8-31.2c3.6,7.2,7.6,13.8,10.3,21c1.1,2.8-0.7,6.6-1.2,10.4c1.6-0.4,3.2-0.8,5.5-1.4c1.1,4.5,2.1,9,3.2,13.5
		c1.6-1.1,3.7-2.6,6.4-4.4c1.6-3.3-6.4-10.7,3.8-11.2c0.9-5,1.8-9.8,2.8-15.8c2.2,1.5,3.3,2.3,3.4,2.4c3.8-4.9,7.6-9.7,11.3-14.5
		c0.6,0.8,1.1,1.7,1.7,2.6c2.8-2.9,6.6-8.7,7.8-8.1c6.5,2.7,9.1-3.8,14.6-4.8c-0.6,2.1-1.1,4-1.5,5.2c7.7-2.3,15.4-4.6,23.1-6.9
		c0.5,0.9,0.9,1.9,1.4,2.8c-10.1,8.9-13.7,24.6-31.8,26.7c3,1.9,4.7,3,6.9,4.4c-3.8,8.7-13.9,13.9-13.8,24.2
		c6.8-2.2,14.4-6.3,22.2-6.7c7.6-0.4,15.4,3,25.3,5.3c-9,4.3-14.6,12-22.6,10.7c-5.6,4.9-9.9,8.8-14.3,12.6c0.2,0.4,0.5,0.7,0.7,1.1
		c4.2-2.3,8.4-4.7,13.2-7.4c0.7,2.1,1.3,3.5,1.7,4.8c4.1-2.1,7.8-3.9,11.9-6c0.2,2.4,0.4,3.9,0.5,5.2c5.4-1.5,10.6-2.9,16.4-4.6
		c-0.5,2.8-0.8,4.2-1,5.3c6.3,0,12.3,0,19,0c-0.5,2.2-0.8,3.5-0.6,2.9c8.4,4.6,16.1,9,25.3,14c-3.4,0.7-5.4,1.2-7.7,1.7
		c7.2,4.9,14.2,9.7,21.2,14.5c-0.4,0.8-0.8,1.6-1.2,2.4c-33.9-19.1-69.9-24.4-108-17.3c32,9.6,60.6,25,85.4,47.1
		c24.8,22.1,43.9,48.8,60.3,77.7c-11.5-58.2-18.6-116.6-19.7-175.7c-1.1-59.2,3.5-117.8,17-175.6c-0.8-0.6-1.6-1.3-2.4-1.9
		c-2.1,2.8-4.1,5.6-6.4,8.3c-2.4,2.8-5,5.5-7.9,8.7c-1.6-1.2-3.1-2.4-5.1-4c1.9,16-12,23.1-17.1,35.8c-2.9-2.2-5.1-3.9-7.4-5.5
		c1.4,7.5,3.5,14.8-3,20.7c-4.5,4-3.7,14.2-13.6,12.3c1.4,10.1-3.6,18.6-11,18.1c-1,9.4-6.5,18.4-18.4,29.1
		c-2.3-24.6-10.8-48.8,14.9-69.1c-5.6,0.5-8.6,0.8-12.8,1.2c5.3-11.5,5.3-25.2,17.6-29.6c0.9-3.9,0.6-7.3,2.2-9.2
		c10.1-12,20-24.2,37.2-26.8c3.7-0.6,6.8-5.5,10.1-8.3c-3.2,0-7.4,0-12,0c-0.4-2.3-0.8-4.1-1.2-6.4c-10.8,12.5-25.5,7.2-38.4,11.7
		c-0.3-3.9-0.5-6.5-0.7-9.1c-4.5,5.8-8.1,12.7-16.8,11.7c-5.9-0.7-13.1,8-17.9-2c-6,8.8-14.4,11.3-20.4,6c-7.2,9.8-19.4,8.1-29.1,13
		c2.6-13,10-23,18.3-32.6c9.2-10.6,20.8-12.9,34.7-13c-2.4-2-4.9-3.9-8.2-6.7c12.2-3.8,22.5-13.3,35.6-6.8c2-1.8,3.8-4.6,5.7-4.8
		c15.7-1.4,31.3-2.1,45.3,7.6c2.5,1.7,7.1,0.2,11.4,0.2c-4.9-4.3-9.6-8.5-14.5-12.9c1.3-1.8,2.4-3.4,4.1-5.8
		c-12.1,3.2-18.4-2.8-23.3-10.1c-11.9-5.7-23.5-11.2-35.4-16.9c15.1-11.6,34.7-10.5,51.3,2.7c0-2.6,0-4.8,0-7.1
		c13.5,4,18.4,7.3,21.8,14.8c4.8,0.4,6.2-1.8,5.7-6.5c-0.4-4.4,0.1-8.9,0.9-13.2c-3.8-11.9,0-24.1-0.6-37
		c12,8.4,23.9,23.8,19.6,41.5c2.1-1.1,3.7-1.9,6.7-3.5c1,6.8,1.7,13,2.7,19.1c0.9,5.9,2.1,11.7,3.4,18.6c2.8-3.7,5.4-7.1,7.9-10.4
		c3.1,1.9,4.5,2.8,6.1,3.8c1.9-10.4,8.8-15.9,19.4-16.6c1.8-0.1,3.4-3.1,5.3-3.4c10-1.4,20.2-4.1,32.3,1
		c-11.9,7.9-22.2,14.8-32.7,21.9c-0.4-0.4,0.7,0.8,1.9,2.2c-5.8,5.4-11.5,10.7-16.8,15.7c3.3,2.1,5.8,3.7,8.8,5.6
		c2.9-8.7,11.1-9.5,19.3-9.7c8.4-0.3,16.8-0.1,26.3-0.1c-1.4,4.7-2.2,7.4-3,10.2c5.3-1.7,10.4-4.9,15.3-4.6
		c5.2,0.3,10.2,3.9,15.4,6.1c5.7-7.2,7.1-19.5,23-15.7c-3.8-3-5.6-4.5-8.5-6.8c8.2-6.3,15.2-13.6,23.8-17.8
		c5.2-2.6,12.7-0.5,18.8-0.5c-0.7-1.2-2.3-4-4.2-7.4c13.7-5.9,27.7-8.9,42.1-7.4c3.8,0.4,7.1,4.8,10.9,7.5c0.4-1.7,0.8-3.7,1.4-6.1
		c2.2,0.2,4.5,0.4,6.7,0.6c0.3-0.5,0.6-1.1,0.9-1.6c-7.8-5-15.6-10.1-24-15.5c1.2-1.4,2.4-2.7,2.2-2.5
		c-13.1-5.5-26.1-10.9-41.1-17.2c8.3-4.4,14.2-8.6,22.1-6.2c0.9,0.3,2.2,0.5,2.8,0.1c6.4-4.9,11.6-2.2,16.5,2.6
		c6-6.3,21.3,1.3,25.5,13.2c1.4-1.8,2.6-3.2,4-5.1c4.1,3,8,6,12.8,9.6c0-14.8,0-28.7,0-43.3c2.2,1,4,1.8,7.4,3.4
		c-10.2-20.6,1.3-35.3,10-50.6c0.9,0,1.8-0.1,2.6-0.1c1,7.3,2,14.6,3.1,21.9c0.2,1.1,0.7,2.1,1.2,3.1c3.2,5.3,5.2,10.5,0.3,15.2
		c7.8,5.3,4.5,13.9,6.8,21c1.9,0.2,4.1,0.4,6.4,0.6c1.4-12.5,12.4-15.4,20.9-22.4c0.4,3.6,0.7,5.8,1.2,10.1
		c14-24.1,34.7-19.7,55-16.8c0.4,0.8,0.8,1.6,1.3,2.4c-6.8,4.1-13.5,8.2-20.3,12.4c-0.9,0.6-2.3,1.1-2.5,2c-1.8,7-6.6,9.4-13.3,8.8
		c2,8.2-10.2,18-23.2,17.9c2.1,1.9,3.8,3.4,6,5.4c-4.3,5.5-8.6,11.1-13.2,17.1c3.4-0.5,6-0.9,8.7-1.2c0.3,1,0.6,2,0.9,3
		c6.5-10.4,16.3-15.6,27.4-17.8c9.9-1.9,20.1-8.3,30.9-0.3c12.5-9.4,25.8-1.5,40.4,0.3c-3.2,3.5-5.6,6.1-7.9,8.7
		c35.5-8.5,51.9,14.9,68,39.1c-11.8-2.5-25,1.5-35.1-7.9c-5.2,7.1-15.8,5.9-24.2-3.5c-0.2,2.4-0.4,4.3-0.7,7.2
		c-13.5-1.8-29.5,6.8-39-11.1c0.4,3.4,0.9,6.7,1.5,11.6c-14.9-2.5-30.3,7.2-44.8-5.4c0.1,2.6,0.2,4.7,0.4,7.3
		c-5.3,0.8-10.7,1.7-16.3,2.6c3.3,4.5,11.8-1.1,13,7.6c22-2.2,37.3,11.1,52.3,24.8c0.7,0.6-0.8,3.5-1.2,5.4
		c12.6,5.2,20.5,14,26.8,30.3c-3.8,0-7.3,0-10.8,0c29.5,17,25.3,45.8,26.8,72.7c-9.4-8.4-23-12.7-24.7-27.7
		c-8.7,3.2-16.2-6.1-16.4-20.2c-1.2,2.2-2.3,4.4-3.7,6.9c-6.8-7.3-13.4-12.7-17.7-19.6c-2.8-4.5-2.3-11.2-3.3-17.3
		c-1.6,1.8-3.9,4.3-8.1,8.9c-7.5-8.4-15.2-16.2-21.8-24.8c-2.3-2.9-2.1-7.8-3.3-12.5c-1.6,2-3,3.7-4.6,5.7
		c-6.8-5-13.6-9.9-20.4-14.9c51.6,124.3,69.1,254.1,68,387.5c12-35,27.3-68.2,50-97.6c22.9-29.5,51.1-52.4,85.4-68.4
		c-22.6-7.5-74.4,10.7-117.9,41.5c4.6-11.2,12.2-17.2,21.6-23.2c-3.2-0.4-5.6-0.7-9.9-1.2c5.1-3.4,9-6,13.4-8.9
		c-0.6-1-1.3-2.4-2.4-4.5c5.2-1.7,9.9-3.2,16.9-5.5c-2.6-0.9-4.1-1.4-5.5-1.9c0.1-0.8,0.2-1.6,0.4-2.4c7-1.4,14.1-2.8,21.5-4.3
		c-0.5-0.8-1.3-2.1-3.4-5.2c7.3,0.5,13.3,0.9,19.9,1.4c-0.1-0.9-0.1-2.7-0.3-5.7c5,1.6,9.4,3,14.3,4.5c0-1.4,0-2.9,0-5.8
		c5.8,1.9,11.1,3.6,16.4,5.3c0.3-0.4,0.7-0.8,1-1.3c-2.4-1.3-4.8-2.6-7.2-3.9c-3.2-1.8-6.4-3.7-9.2-5.3c-9.2-2.6-18.5-5.1-27.8-7.7
		c0.1-0.7,0.2-1.3,0.3-2c8.4-3.4,16.6-8.6,25.3-9.8c10-1.4,20.8-0.5,29.9,7c-3.6-5.1-7.3-10.1-11.6-16.3c-3.5-2.9-8.4-7-13.7-11.4
		c2.8-2.3,4.7-3.8,7-5.7c-16.7-3.4-22.4-6.9-39.2-24c5.7-4.2,15.4-3.8,28,1.6c-1.5-2.8-2.6-4.9-4.5-8.3c4.1,1.6,6.7,2.8,9.4,3.6
		c2,0.6,4.9,5.2,6-0.9c1.9,0.7,4,1.1,5.6,2.2c2.3,1.7,4.3,3.9,6.9,6.4c0.5-1.4,1-2.7,2.2-5.8c5.2,5.8,9.7,11,14.4,16.3
		c0.3-0.4,1.1-1.5,3.1-4.5c2.7,6.6,5,12.1,7.4,17.9c0.8-0.5,2.1-1.3,4.5-2.9c0.6,5.2,1.1,9.8,1.5,13.8c2.6,1.1,5.2,2.3,8.3,3.6
		c0-4.9,0-10.2,0-16.1c2.8,0.4,4.6,0.7,8,1.3c-6.2-6.9-5.1-12.9-2.2-19.8c2.2-5.1,2-11.2,3.1-18.3c21.9,20.1,15.2,46.2,17.3,68.5
		c8.9-2.4,17.4-5.6,26.3-6.8c8.9-1.2,17.8,0.4,25.3,7.9c-12.3,0.7-18.5,11.8-29.9,16.1c3.4,1.3,6.4,2.8,9.4,3.6
		c26.9,7.6,45.2,24,52.6,51.5c0.9,3.4,0.9,7.1-0.3,11.8c-6.5-5.6-13.1-11.3-20.3-17.6c0.3,2.8,0.5,4.8,0.7,6.8
		c-6.9-3.1-13.6-6-20.8-9.2c-7,5.3-8.5-5.1-15-7.1c4.1,6.6,8.3,12,10.8,18.1c2.1,5.3,10,10.7,1.6,17.6c13.1,8.3,8.3,21.6,9.7,34.3
		c-4.3-1.7-7.8-3-10-3.9c1.9,8.7,6.5,17.9,5.2,26.1c-2.3,14.6-10.5,27.4-20.6,38.4c-0.9-0.1-1.8-0.3-2.7-0.4c0-11.8,0-23.6,0-36.7
		c-2.8,3.3-5,5.9-7.9,9.3c0-6.5,0-12,0-18c-1.9,0.5-3.6,0.9-6.1,1.6c0.6-5.6,1.2-10.5,1.8-15.9c-1.8,0.7-3.4,1.2-6.5,2.3
		c0.5-7.5,1-14.1,1.5-21.2c-1.7,1-3.3,1.9-6.7,3.8c1-6.8,1.8-12.3,2.7-18.4c-1.8,0.6-3.8,1.2-6.7,2.2c0.9-5,1.6-9.3,2.5-14.3
		c-1.9,0.9-3.4,1.7-5.9,3c-0.6-5.1-1.2-9.9-1.7-14.7c-0.4-0.1-0.7-0.2-1.1-0.2c-1.8,9.3-3.4,18.7-5.6,27.9
		c-2.2,8.9-5.2,17.6-8.3,27.8c-3.4-3.8-5.1-5.7-5.9-6.6c-3.1,6.7-4.8,14.5-9.5,19.7c-7.1,7.8-17,12.2-29.2,12.7
		c4.6-7.2,9.3-14.4,14.2-22.1c-2.2,0.4-4.3,0.8-6.7,1.2c1.8-4,3.6-7.4,4.8-11.1c1.1-3.2,1.5-6.7,2.4-10.8c0.3,0.2-0.9-0.5-2.8-1.4
		c2.7-3.9,5.4-7.8,8.3-12c-1.3-0.3-2.6-0.7-4.9-1.3c2.8-3.6,5.4-6.8,8.2-10.4c-1.1-0.5-2.3-1.1-4.3-2.1c2.1-2.5,4.1-4.8,6-7.1
		c-1-1.3-3.1-3-2.8-3.9c1.7-5.8,4.1-11.3,5.8-17.1c0.8-2.6,0.4-5.6,0.6-9.2c-25,10.7-46.6,25-65.3,43.4
		c-37.8,37.2-59.7,83.2-70.9,134.2c-6,27.4-7.7,55.7-11.6,83.5c-1.1,7.5,2.1,10,8.9,11.7c31.8,8.2,62.6,18.8,91.2,35.2
		c9.6,5.5,18.6,12.1,27.2,19.9c-235.2,0-470.4,0-707.8,0c7-5.2,12.4-9.6,18.2-13.4c29.1-18.8,61.1-31.2,94.4-39.6
		c29.8-7.6,60.2-12.9,90.4-19.3C309.7,679.1,311.5,678.8,314.5,678.1z M582,280.3c8.4,16.5,10.3,42,4.3,55.4
		c-4.5-5.4-8.9-10.3-12.8-15.6c-1.5-2.1-0.7-6.9-2.4-7.7c-8.5-4.3-9.3-10.7-6.4-17.9c-2-0.8-4.9-1.1-5.1-2c-2.6-11-9.9-22.5,4.4-33
		c-4.3,0.2-6.6,0.4-10,0.5c2.8-13.7-0.9-28.8,13.9-38c-1.1-0.9-2.5-1.9-4.3-3.3c3.6-6,7-11.7,10.5-17.5c-4.7,2.7-8.4,6.4-12.5,9.6
		c-2.4,1.9-6.3,2.3-7.9,4.6c-6.1,8.6-11.4,17.8-17.4,26.6c-1.2,1.8-4.1,2.5-4.3,2.7c-3.6,9.7-6.8,18.3-10.3,28
		c-2.5-2.6-3.5-3.9-4.7-4.8c-1.1-0.9-2.4-1.4-5.3-3.1c10.1,25.7-6.4,44.7-12.1,66.1c-5.4-10.7-15.7-19.5-10.5-33.2
		c-9.1-2.2-9.3-15.4,0-26c-2.7,0.2-5,0.3-8.7,0.5c4.8-15.8-2.1-36.2,24.5-40.1c-5.3-2.1-8.4-3.3-13.7-5.5c10-11.2,19.2-21.7,28.4-32
		c-4.8-1.4-10,7-13.9,1.8c-8.5,4.9-16.8,9.6-25.4,14.5c-0.8-4.4-1.4-7.5-1.9-10c-7.1,8.2-13.8,16.1-21.1,24.6c0.2,1.3,0.7,4.3,1.3,8
		c8.1,3.9,14.5,16,13.5,26.6c-10.6-4.3-21.2-8.4-31.7-12.8c-6.4-2.7-13.3-4.7-15.9-12.5c-0.4-1.1-2.1-1.8-3.8-3.3
		c0,3.7,0,6.4,0,10.2c-8.6-2.9-16.4-5.6-24.9-8.5c-3.5,0-8.4,0-13.2,0c10.3,8,20.4,15.8,31,24c-4.1,3-6.4,4.6-9.5,6.9
		c15.9,2,24.2,13.3,24.9,32.1c-1.7,0.2-3.4,0.4-5.5,0.7c9.4,7.6,11.1,18.2,4.3,23.2c5.6,11.1-0.7,20.3-4.4,30.1
		c-8.9-17.7-25.4-31.8-21.6-56.5c-3.5,4-5.1,5.8-7.6,8.7c-4.6-7.7-8.7-14.7-12.8-21.5c-1.6-1-4-1.9-5.7-3.6
		c-10.1-9.5-18.7-20.8-32.3-25.9c-1.7-0.7-3.4-1.5-6.6-3c11.3,13.7,11.3,13.7,9.9,17.8c13.2,6.3,12.8,19.4,17.1,30.6
		c-3,0.8-4.9,1.3-7.5,2c10.5,7.7,12.5,26.4,4,30.8c3.5,6.5,2.9,10.8-1.9,16.1c-0.7,0.8-1.5,1.9-1.4,2.9c0.5,8.5-5.3,13.6-10.4,21.9
		c-3.5-17.9-12.4-32.7-3.4-50.3c-3.3,1.2-5.2,2-7,2.6c-4.9-22.3-9.7-43.9-14.5-65.4c-2.4,1.3-3.1,2.5-3.2,3.7
		c-2.8,18.9-6.2,37.8-8.1,56.8c-6.1,58.2-3.8,116.3,3.4,174.2c7.3,58.7,20.1,116.2,39.4,172.2c2.4,6.9,4.9,10,12.8,8.8
		c11-1.6,22.3-3,33.4-2.3c12.1,0.8,17.1-4.5,20.6-15.2c5.3-16.1,12.1-31.6,18.5-47.9c-5-0.6-8.9-1-12.9-1.4c1.7-2.2,3.4-3.1,5-2.8
		c8,1.6,11-2.6,13.6-9.4c12.7-33.2,26-66.3,39-99.4c1-2.6,1.9-5.3,2.3-6.4c-10.2-8.4-19.4-15.9-27.4-22.4c-7.8,0.2-16,2.5-22.4,0.1
		c-6.3-2.4-10.8-9.6-16.1-14.7c-4.3,1-9.8,2.3-16.3,3.9c4.6-17,4.6-16.8,19.3-18.2c25.9-2.4,51.8-5.2,77.8-7.5
		c5.7-0.5,10.3-1.2,11.9-7.9c0.4-1.6,3.3-2.6,5-3.9c0.6,2.3,2.3,5.1,1.5,6.7c-2.8,5.5-0.9,9.1,2.9,13.2c18.2,20.1,36,40.6,54,60.9
		c8.2,9.2,8.2,12.6-0.9,24c-3.2-5.3-6.1-10.1-9-15c-20.3,6.1-24.7,4.3-35.4-13.9c-12.7-0.9-24.5-1.8-37.4-2.7
		c-14.4,36.5-29.2,74-44.5,113c6.9,0,11.9-0.5,16.9,0.1c7.7,1,12.7-2,17.5-7.9c13-16.1,26.8-31.6,38.4-45.3c22.1,0,42.2,0,61.3,0
		c-3.9,9-6.9,16.8-10.6,24.3c-8.1,16.4-16.7,32.5-25,48.8c-1.2,2.3-2.6,4.8-2.6,7.1c0.1,12.4,2.7,23.6,16.3,28.6
		c3.2,1.2,6.1,3.3,8.7,5.6c19.8,17.1,45.1,12.2,68.3,18.7c14.7-81.4,17-161.9,10.3-242.7c-6.7-80.6-22.1-159.2-53.3-234
		c-1.7,6.6-3.3,13-3.6,19.5c-0.4,9.2,0.4,18.5,0.3,27.8c0,1.6-1.9,3.2-1.7,2.9c0.7,9.4,1.4,17.2,2.1,26.3
		C587.6,282.3,585.5,281.5,582,280.3z M569,674c0.1-0.5,0.3-1.1,0.4-1.6c-13.1-8.5-26.2-17-39.5-25.3c-1.2-0.8-3.7-0.9-4.9-0.2
		c-6.6,3.7-13,7.8-20.8,12.5c7.2,4,13.5,9.7,20.5,10.9C539.2,672.8,554.2,672.9,569,674z M522.6,557.6c-12.8,15-25.6,30-39.8,46.7
		c9.3,0,15.9,0.2,22.5-0.1c1.8-0.1,4.4-1.1,5.1-2.5C517.6,588.1,522.5,573.8,522.6,557.6z M481.5,605.8c-8,9.3-14.3,16.8-21.1,24.7
		c5.6,3.7,9.9,6.7,14.4,9.4c4.9,3,11-0.6,10.5-6.4C484.6,625.1,483.1,616.8,481.5,605.8z M456.5,635.1c-6.4,7.5-12.4,14.5-19.2,22.4
		c15.2,3.2,25.4-3.3,36.5-11.3C467.5,642.2,462.3,638.8,456.5,635.1z M455.5,627.3c5.5-6.5,10.5-12.4,17-20.1
		c-8.5,0-14.8,0.4-21-0.1c-6.2-0.5-7.1,4.2-7.7,8c-0.3,2.1,1.8,5.2,3.6,7C449.4,624.1,452.3,625.3,455.5,627.3z M481.6,664
		c-0.3-1-0.6-1.9-0.9-2.9c-14.5,0-29-0.3-43.5,0.3c-2.9,0.1-5.7,3.7-8.6,5.7c15.9,1.7,30.7,1.9,45.5,1.4
		C476.7,668.5,479.1,665.6,481.6,664z M439.9,624.3c-4.8,12.1-9.1,23.2-13.5,34.3c0.6,0.3,1.1,0.6,1.7,0.9c7.7-9,15.3-18,23.5-27.5
		C447.5,629.3,444.2,627.2,439.9,624.3z M492.3,622.2c1-5.6,2.2-9.3,1.8-12.9c-0.1-1-5.1-1.5-9.3-2.6c1.2,9.6,2.2,17.3,3.4,27
		c3.4-4,5.2-6.2,7-8.4C493.6,623.6,492.4,622.3,492.3,622.2z M508,669.1c-12.6-9.8-16-13.4-21.6,0C493.3,669.1,500,669.1,508,669.1z
		 M543.3,648.4c-0.9-6.2-1.5-10.6-2.4-17c-3.7,3.9-6.1,6.4-9.1,9.6C535.7,643.5,538.8,645.5,543.3,648.4z"/>
</g>
</svg>
